<svg width="448" height="124" viewBox="0 0 448 124" fill="none" xmlns="http://www.w3.org/2000/svg">
<rect x="39.6521" y="14.1271" width="8.82944" height="8.82944" fill="black"/>
<rect x="39.6521" y="30.903" width="8.82944" height="8.82944" fill="black"/>
<rect x="39.6521" y="47.679" width="8.82944" height="8.82944" fill="black"/>
<rect x="39.6521" y="64.4549" width="8.82944" height="8.82944" fill="black"/>
<rect x="104.107" y="14.1271" width="8.82944" height="8.82944" fill="black"/>
<rect x="104.107" y="30.903" width="8.82944" height="8.82944" fill="black"/>
<rect x="104.107" y="47.679" width="8.82944" height="8.82944" fill="black"/>
<rect x="104.107" y="64.4549" width="8.82944" height="8.82944" fill="black"/>
<rect x="33.2056" y="1.5" width="85.2944" height="85.2944" rx="13.5" stroke="black" stroke-width="3"/>
<path d="M63.7535 28.1282L92.6216 44.1919L64.276 61.1605L63.7535 28.1282Z" stroke="black" stroke-width="3"/>
<path d="M29.0568 33.1104C29.0568 33.1104 13.6053 36.6422 7.86613 38.4081C2.127 40.174 1.68552 45.4716 2.127 49.4449C2.56847 53.4181 16.2541 106.836 18.4615 114.783C20.6688 122.729 25.0836 121.846 29.4983 120.963C33.913 120.08 88.6555 106.836 95.2776 105.07C101.9 103.304 101.017 97.5653 100.575 94.9165C100.134 92.2677 99.6923 90.5018 99.6923 90.5018" stroke="black" stroke-width="3"/>
<path d="M176.4 87C174.9 87 173.2 86.675 171.3 86.025C169.45 85.325 167.8 84.525 166.35 83.625C164.95 82.675 164.15 81.85 163.95 81.15C163.8 80.65 163.625 79.275 163.425 77.025C163.275 74.725 163.175 73.175 163.125 72.375L162.825 68.025C160.075 73.425 157.475 77.95 155.025 81.6C152.625 85.2 150.725 87 149.325 87C148.175 87 146.8 86.6 145.2 85.8C143.65 84.95 142.275 83.95 141.075 82.8C139.925 81.65 139.35 80.7 139.35 79.95C139.35 79.05 139.925 75.775 141.075 70.125C142.325 63.725 143.15 59.325 143.55 56.925L144.15 53.4C145.1 47.8 145.975 43.25 146.775 39.75C147.625 36.25 148.475 34.5 149.325 34.5C150.275 34.5 151.55 34.925 153.15 35.775C154.8 36.625 156.225 37.625 157.425 38.775C158.675 39.925 159.3 40.925 159.3 41.775C159.3 42.875 158.975 44.575 158.325 46.875C157.675 49.125 156.7 52.275 155.4 56.325C153.35 62.425 151.875 67.25 150.975 70.8L152.175 71.25L155.175 66.675C157.525 63.075 159.35 60.45 160.65 58.8C162 57.15 163.225 56.325 164.325 56.325C168.925 56.325 171.95 62.775 173.4 75.675C176.05 72.775 177.95 68.975 179.1 64.275C180.25 59.575 180.825 54.575 180.825 49.275C179.025 48.375 177.325 47.75 175.725 47.4C174.125 47 172.375 46.825 170.475 46.875C169.275 44.825 168.675 42.875 168.675 41.025C168.675 39.475 169.15 38.125 170.1 36.975C171.05 35.825 172.5 35 174.45 34.5C179.75 35.35 183.875 37.25 186.825 40.2C189.775 43.1 191.25 46.7 191.25 51C191.25 54.4 190.575 59.025 189.225 64.875C187.875 70.725 186.05 75.875 183.75 80.325C181.5 84.775 179.05 87 176.4 87ZM228.362 68.325C228.412 69.125 228.587 71.15 228.887 74.4C229.237 77.6 229.412 80.275 229.412 82.425C229.412 85.225 229.087 86.725 228.437 86.925C228.237 86.975 227.912 87 227.462 87C226.362 87 224.987 86.75 223.337 86.25C221.737 85.7 220.287 85.025 218.987 84.225C217.737 83.425 217.012 82.65 216.812 81.9C216.612 81.15 216.512 78 216.512 72.45C211.112 73.1 207.562 73.5 205.862 73.65C204.512 77.6 202.962 81.925 201.212 86.625C199.862 86.925 198.612 87.075 197.462 87.075C195.462 87.075 193.762 86.6 192.362 85.65C191.012 84.65 190.112 83.15 189.662 81.15L191.162 77.775C196.662 65.525 201.412 55.25 205.412 46.95C209.462 38.65 212.087 34.5 213.287 34.5C214.237 34.5 215.612 34.85 217.412 35.55C219.262 36.25 220.912 37.1 222.362 38.1C223.862 39.1 224.712 40 224.912 40.8C225.262 42.2 225.737 45.125 226.337 49.575C226.937 54.025 227.412 58.325 227.762 62.475L228.362 68.325ZM216.287 46.2C214.087 51.4 211.912 56.975 209.762 62.925C212.062 62.775 214.337 62.55 216.587 62.25C216.587 55.35 216.487 50 216.287 46.2ZM271.869 34.5C272.819 35.05 273.519 35.825 273.969 36.825C274.469 37.775 274.719 38.825 274.719 39.975C274.719 40.975 274.519 41.975 274.119 42.975C273.719 43.975 273.194 44.8 272.544 45.45C271.794 45.4 270.669 45.375 269.169 45.375C268.219 45.375 266.494 45.425 263.994 45.525L260.019 45.6C260.269 44.15 259.669 47.525 258.219 55.725L256.719 64.275C256.219 67.225 255.694 71.1 255.144 75.9C254.644 80 254.194 82.875 253.794 84.525C253.444 86.175 252.869 87 252.069 87C250.919 87 249.544 86.6 247.944 85.8C246.394 84.95 245.019 83.95 243.819 82.8C242.669 81.65 242.094 80.7 242.094 79.95C242.044 78.8 242.644 75.4 243.894 69.75C244.844 65 245.519 61.475 245.919 59.175C245.919 59.275 246.319 57.2 247.119 52.95C247.819 49.15 248.244 46.825 248.394 45.975L236.694 47.4C235.744 46.9 234.969 46.175 234.369 45.225C233.819 44.225 233.544 43.15 233.544 42C233.544 40 234.319 38.225 235.869 36.675C238.719 36.275 242.269 36.025 246.519 35.925C250.819 35.775 253.369 35.675 254.169 35.625C259.419 35.475 263.244 35.35 265.644 35.25C268.094 35.1 270.169 34.85 271.869 34.5ZM306.282 79.725C305.232 80.775 303.557 81.9 301.257 83.1C299.007 84.3 296.532 85.325 293.832 86.175C291.182 86.975 288.707 87.375 286.407 87.375C284.657 87.375 282.582 86.575 280.182 84.975C277.782 83.325 275.707 81.375 273.957 79.125C272.257 76.875 271.407 74.875 271.407 73.125C271.457 67.775 272.357 62.025 274.107 55.875C275.907 49.725 278.582 44.5 282.132 40.2C285.732 35.9 290.057 33.75 295.107 33.75C297.757 33.75 300.207 34.5 302.457 36C304.757 37.5 306.557 39.35 307.857 41.55C309.157 43.75 309.807 45.825 309.807 47.775C309.857 49.825 309.157 51.4 307.707 52.5C306.257 53.55 304.432 54.075 302.232 54.075C300.632 54.075 299.032 53.775 297.432 53.175C297.482 52.275 297.507 51 297.507 49.35C297.507 47.5 297.357 46.125 297.057 45.225C296.757 44.325 296.182 43.875 295.332 43.875C293.632 43.875 291.882 45.625 290.082 49.125C288.332 52.625 286.832 56.925 285.582 62.025C284.382 67.125 283.732 71.8 283.632 76.05C286.932 75.45 289.957 74.475 292.707 73.125C295.507 71.725 297.957 70.125 300.057 68.325C302.307 68.875 304.032 69.9 305.232 71.4C306.482 72.85 307.107 74.475 307.107 76.275C307.107 77.375 306.832 78.525 306.282 79.725ZM347.523 34.5C348.473 34.5 349.748 34.925 351.348 35.775C352.998 36.625 354.423 37.625 355.623 38.775C356.873 39.925 357.498 40.925 357.498 41.775C357.498 42.225 357.023 44.225 356.073 47.775C354.323 54.075 353.023 59.575 352.173 64.275C351.673 67.225 351.148 71.1 350.598 75.9C350.098 80 349.648 82.875 349.248 84.525C348.898 86.175 348.323 87 347.523 87C346.373 87 344.998 86.6 343.398 85.8C341.848 84.95 340.473 83.95 339.273 82.8C338.123 81.65 337.548 80.7 337.548 79.95C337.498 79.25 337.648 77.925 337.998 75.975C338.398 73.975 338.848 71.775 339.348 69.375L340.023 66.15C335.423 66.85 330.898 67.35 326.448 67.65C325.948 71 325.598 73.8 325.398 76.05C324.898 80.1 324.448 82.95 324.048 84.6C323.698 86.2 323.123 87 322.323 87C321.173 87 319.798 86.6 318.198 85.8C316.648 84.95 315.273 83.95 314.073 82.8C312.923 81.65 312.348 80.7 312.348 79.95C312.298 79.15 312.523 77.475 313.023 74.925C313.573 72.325 313.923 70.65 314.073 69.9C314.273 68.9 314.648 67.075 315.198 64.425C315.748 61.725 316.198 59.225 316.548 56.925L317.148 53.4C318.098 47.8 318.973 43.25 319.773 39.75C320.623 36.25 321.473 34.5 322.323 34.5C323.273 34.5 324.548 34.925 326.148 35.775C327.798 36.625 329.223 37.625 330.423 38.775C331.673 39.925 332.298 40.925 332.298 41.775C332.298 42.225 331.823 44.225 330.873 47.775C330.673 48.575 330.323 49.925 329.823 51.825C329.323 53.725 328.873 55.5 328.473 57.15C333.123 56.8 337.623 56.325 341.973 55.725C342.073 55.025 342.173 54.475 342.273 54.075C343.173 48.525 344.048 43.875 344.898 40.125C345.748 36.375 346.623 34.5 347.523 34.5Z" fill="black"/>
<path d="M374.48 87.24C372.24 87.24 370.72 86.6533 369.92 85.48C369.12 84.2533 368.72 82.8133 368.72 81.16C368.72 79.4533 368.96 77.6933 369.44 75.88C369.92 74.0667 370.347 72.5467 370.72 71.32C371.573 68.3333 372.64 65.16 373.92 61.8C375.253 58.3867 376.693 55.0533 378.24 51.8C379.84 48.4933 381.413 45.5333 382.96 42.92C384.187 40.84 385.493 39.2933 386.88 38.28C388.32 37.2133 389.573 36.68 390.64 36.68C391.493 36.68 392.16 37 392.64 37.64C393.173 38.2267 393.44 39.1333 393.44 40.36C393.44 41.2133 393.28 42.2267 392.96 43.4C392.693 44.5733 392.213 45.9067 391.52 47.4C389.653 51.56 387.413 55.72 384.8 59.88C382.24 64.04 378.987 67.9333 375.04 71.56C374.827 72.2533 374.533 73.08 374.16 74.04C373.84 74.9467 373.547 75.88 373.28 76.84C372.96 78.28 372.8 79.5067 372.8 80.52C372.8 82.1733 373.12 83.4267 373.76 84.28C374.453 85.08 375.28 85.48 376.24 85.48C377.093 85.48 378 85.1867 378.96 84.6C379.92 83.96 380.827 83.0533 381.68 81.88C382.96 80.0133 384.107 78.12 385.12 76.2C386.187 74.2267 386.987 72.7067 387.52 71.64C387.84 71.0533 388.187 70.76 388.56 70.76C388.827 70.76 388.96 70.92 388.96 71.24C388.96 71.5067 388.88 71.8 388.72 72.12C388.24 73.1867 387.6 74.5733 386.8 76.28C386.053 77.9333 385.093 79.6133 383.92 81.32C382.8 82.9733 381.44 84.3867 379.84 85.56C378.293 86.68 376.507 87.24 374.48 87.24ZM375.68 69C377.6 67.0267 379.467 64.76 381.28 62.2C383.093 59.5867 384.773 56.8933 386.32 54.12C387.92 51.2933 389.253 48.6267 390.32 46.12C390.693 45.32 390.987 44.44 391.2 43.48C391.467 42.52 391.6 41.72 391.6 41.08C391.6 40.3333 391.413 39.96 391.04 39.96C390.827 39.96 390.507 40.1733 390.08 40.6C389.653 40.9733 389.093 41.64 388.4 42.6C387.387 43.9333 386.267 45.7467 385.04 48.04C383.867 50.3333 382.667 52.7867 381.44 55.4C380.213 58.0133 379.093 60.5467 378.08 63C377.067 65.4 376.267 67.4 375.68 69ZM391.351 87C389.325 87 387.831 86.3333 386.871 85C385.911 83.6133 385.431 81.9333 385.431 79.96C385.431 77.56 385.991 75.0533 387.111 72.44C388.178 69.9867 389.538 67.7467 391.191 65.72C392.845 63.6933 394.631 62.0667 396.551 60.84C398.471 59.56 400.338 58.92 402.151 58.92C404.178 58.92 405.671 59.5867 406.631 60.92C407.591 62.2533 408.071 63.9333 408.071 65.96C408.071 68.4133 407.511 70.92 406.391 73.48C405.751 74.92 404.845 76.52 403.671 78.28C402.498 79.9867 401.165 81.56 399.671 83C399.991 83.5867 400.445 84.0933 401.031 84.52C401.618 84.8933 402.418 85.08 403.431 85.08C404.711 85.08 405.911 84.5467 407.031 83.48C408.205 82.4133 409.271 81.1333 410.231 79.64C411.191 78.0933 412.045 76.5467 412.791 75C413.538 73.4533 414.151 72.2 414.631 71.24C414.791 70.92 415.058 70.76 415.431 70.76C415.645 70.76 415.805 70.8667 415.911 71.08C416.018 71.24 415.991 71.5067 415.831 71.88C415.511 72.68 414.978 73.88 414.231 75.48C413.485 77.0267 412.578 78.6533 411.511 80.36C410.445 82.0133 409.218 83.4267 407.831 84.6C406.445 85.7733 404.898 86.36 403.191 86.36C402.018 86.36 401.005 86.1733 400.151 85.8C399.298 85.3733 398.605 84.8667 398.071 84.28C396.951 85.1333 395.831 85.8 394.711 86.28C393.591 86.76 392.471 87 391.351 87ZM392.551 85.24C393.991 85.24 395.538 84.5467 397.191 83.16C396.765 82.52 396.445 81.8533 396.231 81.16C396.018 80.4667 395.911 79.8267 395.911 79.24C395.911 78.28 396.125 77.4533 396.551 76.76C397.031 76.0667 397.751 75.72 398.711 75.72C399.405 75.72 399.965 75.9867 400.391 76.52C400.871 77 401.111 77.56 401.111 78.2C401.111 78.36 401.085 78.52 401.031 78.68C401.031 78.7867 401.005 78.92 400.951 79.08C401.858 77.8533 402.711 76.4133 403.511 74.76C405.271 70.9733 406.151 67.8533 406.151 65.4C406.151 64.1733 405.911 63.2133 405.431 62.52C404.951 61.8267 404.231 61.48 403.271 61.48C402.151 61.48 400.925 61.96 399.591 62.92C398.311 63.88 397.058 65.16 395.831 66.76C394.658 68.36 393.618 70.1467 392.711 72.12C391.858 73.9333 391.165 75.6933 390.631 77.4C390.151 79.0533 389.911 80.4933 389.911 81.72C389.911 82.7867 390.125 83.64 390.551 84.28C390.978 84.92 391.645 85.24 392.551 85.24ZM408.868 112.52C403.801 112.52 401.268 110.44 401.268 106.28C401.268 104.307 401.961 102.547 403.348 101C404.735 99.4533 406.388 98.12 408.308 97C410.975 95.4 413.561 94.12 416.068 93.16C418.575 92.2 420.948 91.3467 423.188 90.6C425.481 89.9067 427.641 89.1333 429.668 88.28C430.628 85.4533 431.268 82.4933 431.588 79.4C431.748 77.8 431.828 76.4133 431.828 75.24C431.828 74.0133 431.748 73.2133 431.588 72.84C431.001 73.96 430.228 75.32 429.268 76.92C428.308 78.52 427.215 80.0933 425.988 81.64C424.761 83.1333 423.428 84.3867 421.988 85.4C420.601 86.4133 419.161 86.92 417.668 86.92C417.135 86.92 416.628 86.84 416.148 86.68C414.655 86.04 413.561 85.1333 412.868 83.96C412.228 82.7867 411.908 81.4533 411.908 79.96C411.908 77.56 412.601 74.9733 413.988 72.2C415.375 69.4267 417.028 66.8933 418.948 64.6C420.495 62.7333 422.308 61.24 424.388 60.12C426.468 59 428.575 58.44 430.708 58.44C433.161 58.44 435.455 59.2667 437.588 60.92C438.388 61.56 438.788 62.2533 438.788 63C438.788 63.8 438.468 64.2 437.828 64.2C437.295 64.2 436.921 63.8533 436.708 63.16C435.961 61.1867 434.761 60.2 433.108 60.2C431.775 60.2 430.255 60.7867 428.548 61.96C426.841 63.08 425.241 64.4933 423.748 66.2C422.468 67.64 421.215 69.2933 419.988 71.16C418.815 73.0267 417.828 74.8667 417.028 76.68C416.281 78.4933 415.908 80.0667 415.908 81.4C415.908 82.3067 416.121 83.08 416.548 83.72C416.975 84.36 417.641 84.68 418.548 84.68C419.775 84.68 421.055 84.0933 422.388 82.92C423.775 81.7467 425.081 80.3067 426.308 78.6C427.588 76.8933 428.681 75.16 429.588 73.4C430.548 71.64 431.215 70.1733 431.588 69C431.961 67.7733 432.468 67.0267 433.108 66.76C433.748 66.44 434.388 66.28 435.028 66.28C435.668 66.28 436.201 66.12 436.628 65.8C436.841 66.9733 436.975 68.1733 437.028 69.4C437.135 70.5733 437.188 71.7733 437.188 73C437.188 77.1067 436.655 81.24 435.588 85.4C436.548 84.6533 437.535 83.8533 438.548 83C439.615 82.0933 440.521 81.1333 441.268 80.12C442.601 78.3067 443.588 76.6533 444.228 75.16C444.921 73.6133 445.455 72.4133 445.828 71.56C446.148 71.0267 446.495 70.76 446.868 70.76C447.188 70.76 447.348 70.92 447.348 71.24C447.348 71.5067 447.241 71.8267 447.028 72.2C445.695 75.0267 444.468 77.4533 443.348 79.48C442.228 81.4533 441.001 83.1333 439.668 84.52C438.335 85.8533 436.681 87 434.708 87.96C433.855 90.52 432.575 93.2133 430.868 96.04C429.161 98.8667 427.161 101.533 424.868 104.04C422.575 106.547 420.068 108.573 417.348 110.12C414.628 111.72 411.801 112.52 408.868 112.52ZM406.948 110.92C408.121 110.92 409.348 110.653 410.628 110.12C411.961 109.64 413.215 109.053 414.388 108.36C415.561 107.667 416.468 107.08 417.108 106.6C418.335 105.64 419.588 104.44 420.868 103C422.148 101.56 423.268 100.173 424.228 98.84C425.135 97.56 425.988 96.2 426.788 94.76C427.641 93.3733 428.361 91.9867 428.948 90.6C428.521 90.76 427.988 90.9467 427.348 91.16C426.761 91.3733 426.335 91.5333 426.068 91.64C424.308 92.2267 422.361 92.8933 420.228 93.64C418.148 94.44 416.068 95.2933 413.988 96.2C411.908 97.16 410.015 98.2 408.308 99.32C406.815 100.333 405.588 101.667 404.628 103.32C403.615 104.973 403.108 106.413 403.108 107.64C403.108 108.547 403.428 109.32 404.068 109.96C404.655 110.6 405.615 110.92 406.948 110.92Z" fill="black"/>
</svg>
